# xmcd
#
# Track frame offsets:
#	150
#	24263
#	43653
#	64448
#	87093
#	104127
#	124279
#	144209
#	165219
#	185938
#	207250
#	231397
#	249766
#	270973
#
# Disc length: 3868 seconds
#
# Revision: 0
# Processed by: cddbd v1.4PL0 Copyright (c) Steve Scherf et al.
# Submitted via: EasyCDDAExtractor 4.5.0.2
#
DISCID=c00f1a0e
DTITLE=Michael Bolton - All That Matters
DYEAR=1900
DGENRE=Blues
TTITLE0=Safe Place From The Storm
TTITLE1=The Best Of Love
TTITLE2=Let's Make A Long Story Longer
TTITLE3=A Heart Can Only Be So Strong
TTITLE4=Fallin'
TTITLE5=Forever's Just A Matter Of Time
TTITLE6=Whenever I Remember Loving You
TTITLE7=Show Her The Way
TTITLE8=Why Me
TTITLE9=Can't Get Close Enough To You
TTITLE10=Let There Be Love
TTITLE11=Pleasure Or Pain
TTITLE12=Go The Distance
TTITLE13=When There Are No Words
EXTD=
EXTT0=
EXTT1=
EXTT2=
EXTT3=
EXTT4=
EXTT5=
EXTT6=
EXTT7=
EXTT8=
EXTT9=
EXTT10=
EXTT11=
EXTT12=
EXTT13=
PLAYORDER=
